# xmcd
#
# Track frame offsets: 
#        182
#        13557
#        26135
#        37692
#        49832
#        61682
#        75032
#        87580
#        98507
#        111432
#        126422
#        138477
#        151892
#        163900
#        175840
#        189412
#        201672
#        215210
#        227287
#        239500
#        253315
#        263720
#        273942
#        287195
#        299252
#
# Disc length: 4063 seconds
#
# Revision: 4
# Processed by: cddbd v1.5.2PL0 Copyright (c) Steve Scherf et al.
# Submitted via: ExactAudioCopyFreeDBPlugin 1.0
#
DISCID=680fdd19
DTITLE=Sam and Dave - Sweat 'n' Soul, 1965-1971
DYEAR=1993
DGENRE=Soul
TTITLE0=A Place Nobody Can Find
TTITLE1=Goodnight Baby
TTITLE2=I Take What I Want
TTITLE3=You Don't Know Like I Know
TTITLE4=Hold On! I'm Comin'
TTITLE5=I Got Everything I Need
TTITLE6=Don't Make It So Hard on Me
TTITLE7=Blame Me (Don't Blame My Heart)
TTITLE8=You Got Me Hummin'
TTITLE9=When Something is Wrong with My Baby
TTITLE10=Small Portion of Your Love
TTITLE11=I Don't Need Nobody (To Tell Me 'Bout My Baby)
TTITLE12=That's the Way It's Gotta Be
TTITLE13=Said I Wasn't Gonna Tell Nobody
TTITLE14=Soothe Me (Live)
TTITLE15=I Can't Stand Up for Falling Down
TTITLE16=Toe Hold
TTITLE17=Soul Man
TTITLE18=May I Baby
TTITLE19=Just Keep Holding On
TTITLE20=The Good Runs the Bad Away
TTITLE21=Rich Kind of Poverty
TTITLE22=I've Seen What Lonelyness Can Do
TTITLE23=My Reason for Living
TTITLE24=Stay In School (public service announcement)
EXTD=
EXTT0=
EXTT1=
EXTT2=
EXTT3=
EXTT4=
EXTT5=
EXTT6=
EXTT7=
EXTT8=
EXTT9=
EXTT10=
EXTT11=
EXTT12=
EXTT13=
EXTT14=
EXTT15=
EXTT16=
EXTT17=
EXTT18=
EXTT19=
EXTT20=
EXTT21=
EXTT22=
EXTT23=
EXTT24=
PLAYORDER=
